<mxfile host="Electron" modified="2024-03-12T18:19:12.814Z" agent="Mozilla/5.0 (Windows NT 10.0; Win64; x64) AppleWebKit/537.36 (KHTML, like Gecko) draw.io/24.0.4 Chrome/120.0.6099.109 Electron/28.1.0 Safari/537.36" etag="Jd8wRzIDKCukWmTxKaev" version="24.0.4" type="device">
  <diagram name="Page-1" id="mJiHtR6092hSN3zeJ4r4">
    <mxGraphModel dx="880" dy="524" grid="1" gridSize="10" guides="1" tooltips="1" connect="1" arrows="1" fold="1" page="1" pageScale="1" pageWidth="850" pageHeight="1100" math="0" shadow="0">
      <root>
        <mxCell id="0" />
        <mxCell id="1" parent="0" />
        <mxCell id="e4dGOHBsxu-X1obNb4UQ-6" style="edgeStyle=orthogonalEdgeStyle;rounded=0;orthogonalLoop=1;jettySize=auto;html=1;endArrow=none;endFill=0;startArrow=diamond;startFill=0;strokeWidth=1;targetPerimeterSpacing=0;sourcePerimeterSpacing=0;startSize=12;" edge="1" parent="1" source="e4dGOHBsxu-X1obNb4UQ-1" target="e4dGOHBsxu-X1obNb4UQ-4">
          <mxGeometry relative="1" as="geometry" />
        </mxCell>
        <mxCell id="e4dGOHBsxu-X1obNb4UQ-1" value="&lt;p style=&quot;margin:0px;margin-top:4px;text-align:center;&quot;&gt;&lt;b&gt;&lt;font face=&quot;Verdana&quot; style=&quot;font-size: 14px;&quot;&gt;Client&lt;/font&gt;&lt;/b&gt;&lt;/p&gt;&lt;hr size=&quot;1&quot; style=&quot;border-style:solid;&quot;&gt;&lt;div style=&quot;height:2px;&quot;&gt;&lt;/div&gt;&lt;hr size=&quot;1&quot; style=&quot;border-style:solid;&quot;&gt;&lt;div style=&quot;height:2px;&quot;&gt;&lt;/div&gt;" style="verticalAlign=top;align=left;overflow=fill;html=1;whiteSpace=wrap;" vertex="1" parent="1">
          <mxGeometry x="65" y="95" width="140" height="60" as="geometry" />
        </mxCell>
        <mxCell id="e4dGOHBsxu-X1obNb4UQ-13" style="edgeStyle=orthogonalEdgeStyle;rounded=0;orthogonalLoop=1;jettySize=auto;html=1;entryX=0.5;entryY=0;entryDx=0;entryDy=0;endArrow=diamondThin;endFill=0;endSize=12;" edge="1" parent="1" source="e4dGOHBsxu-X1obNb4UQ-4" target="e4dGOHBsxu-X1obNb4UQ-11">
          <mxGeometry relative="1" as="geometry" />
        </mxCell>
        <mxCell id="e4dGOHBsxu-X1obNb4UQ-14" value="&lt;font face=&quot;Verdana&quot; style=&quot;font-size: 12px;&quot;&gt;-comp&lt;/font&gt;" style="edgeLabel;html=1;align=center;verticalAlign=middle;resizable=0;points=[];" vertex="1" connectable="0" parent="e4dGOHBsxu-X1obNb4UQ-13">
          <mxGeometry x="-0.8868" y="4" relative="1" as="geometry">
            <mxPoint x="18" y="-11" as="offset" />
          </mxGeometry>
        </mxCell>
        <mxCell id="e4dGOHBsxu-X1obNb4UQ-4" value="&lt;p style=&quot;margin:0px;margin-top:4px;text-align:center;&quot;&gt;&lt;font face=&quot;Verdana&quot;&gt;&lt;i&gt;&lt;font style=&quot;font-size: 14px;&quot;&gt;&amp;lt;&amp;lt;Interface&amp;gt;&amp;gt;&lt;/font&gt;&lt;/i&gt;&lt;br&gt;&lt;b&gt;IComponent&lt;/b&gt;&lt;/font&gt;&lt;/p&gt;&lt;hr size=&quot;1&quot; style=&quot;border-style:solid;&quot;&gt;&lt;p style=&quot;margin:0px;margin-left:4px;&quot;&gt;&lt;font face=&quot;Q1BK5dWeow89UjKP4YQ6&quot;&gt;&lt;br&gt;&lt;/font&gt;&lt;/p&gt;&lt;hr size=&quot;1&quot; style=&quot;border-style:solid;&quot;&gt;&lt;p style=&quot;margin:0px;margin-left:4px;&quot;&gt;&lt;font style=&quot;font-size: 14px;&quot; face=&quot;Q1BK5dWeow89UjKP4YQ6&quot;&gt;+ Operation()&lt;/font&gt;&lt;br&gt;&lt;/p&gt;" style="verticalAlign=top;align=left;overflow=fill;html=1;whiteSpace=wrap;" vertex="1" parent="1">
          <mxGeometry x="335" y="70" width="190" height="110" as="geometry" />
        </mxCell>
        <mxCell id="e4dGOHBsxu-X1obNb4UQ-10" style="edgeStyle=orthogonalEdgeStyle;rounded=0;orthogonalLoop=1;jettySize=auto;html=1;entryX=0.25;entryY=1;entryDx=0;entryDy=0;dashed=1;endArrow=block;endFill=0;endSize=12;" edge="1" parent="1" source="e4dGOHBsxu-X1obNb4UQ-9" target="e4dGOHBsxu-X1obNb4UQ-4">
          <mxGeometry relative="1" as="geometry" />
        </mxCell>
        <mxCell id="e4dGOHBsxu-X1obNb4UQ-9" value="&lt;p style=&quot;margin:0px;margin-top:4px;text-align:center;&quot;&gt;&lt;font face=&quot;Verdana&quot;&gt;&lt;b&gt;Component&lt;/b&gt;&lt;/font&gt;&lt;/p&gt;&lt;hr size=&quot;1&quot; style=&quot;border-style:solid;&quot;&gt;&lt;p style=&quot;margin:0px;margin-left:4px;&quot;&gt;&lt;br&gt;&lt;/p&gt;&lt;hr size=&quot;1&quot; style=&quot;border-style:solid;&quot;&gt;&lt;p style=&quot;margin:0px;margin-left:4px;&quot;&gt;&lt;font size=&quot;3&quot; face=&quot;AqXF7-gaKp5vU-Spmhbg&quot;&gt;+ Operation()&lt;/font&gt;&lt;/p&gt;" style="verticalAlign=top;align=left;overflow=fill;html=1;whiteSpace=wrap;" vertex="1" parent="1">
          <mxGeometry x="65" y="240" width="160" height="90" as="geometry" />
        </mxCell>
        <mxCell id="e4dGOHBsxu-X1obNb4UQ-12" style="edgeStyle=orthogonalEdgeStyle;rounded=0;orthogonalLoop=1;jettySize=auto;html=1;entryX=0.75;entryY=1;entryDx=0;entryDy=0;dashed=1;endArrow=block;endFill=0;startSize=6;endSize=12;" edge="1" parent="1" source="e4dGOHBsxu-X1obNb4UQ-11" target="e4dGOHBsxu-X1obNb4UQ-4">
          <mxGeometry relative="1" as="geometry" />
        </mxCell>
        <mxCell id="e4dGOHBsxu-X1obNb4UQ-11" value="&lt;p style=&quot;margin:0px;margin-top:4px;text-align:center;&quot;&gt;&lt;font face=&quot;Verdana&quot;&gt;&lt;span style=&quot;font-size: 14px;&quot;&gt;&lt;b&gt;Decorator&lt;/b&gt;&lt;/span&gt;&lt;/font&gt;&lt;/p&gt;&lt;hr size=&quot;1&quot; style=&quot;border-style:solid;&quot;&gt;&lt;p style=&quot;margin:0px;margin-left:4px;&quot;&gt;&lt;font size=&quot;3&quot; face=&quot;sPFNrM0nV53jE3aVufnH&quot;&gt;- addedState&lt;/font&gt;&lt;/p&gt;&lt;hr size=&quot;1&quot; style=&quot;border-style:solid;&quot;&gt;&lt;p style=&quot;margin: 0px 0px 0px 4px; line-height: 180%;&quot;&gt;&lt;font face=&quot;sPFNrM0nV53jE3aVufnH&quot; size=&quot;3&quot;&gt;+ Operation()&lt;/font&gt;&lt;/p&gt;&lt;p style=&quot;margin: 0px 0px 0px 4px; line-height: 180%;&quot;&gt;&lt;font face=&quot;sPFNrM0nV53jE3aVufnH&quot; size=&quot;3&quot;&gt;+ AddedBehavior()&lt;/font&gt;&lt;/p&gt;" style="verticalAlign=top;align=left;overflow=fill;html=1;whiteSpace=wrap;" vertex="1" parent="1">
          <mxGeometry x="625" y="210" width="160" height="120" as="geometry" />
        </mxCell>
        <mxCell id="e4dGOHBsxu-X1obNb4UQ-19" value="&lt;p style=&quot;margin:0px;margin-top:4px;text-align:center;&quot;&gt;&lt;b&gt;&lt;font face=&quot;Verdana&quot; style=&quot;font-size: 14px;&quot;&gt;DecoratorA&lt;/font&gt;&lt;/b&gt;&lt;/p&gt;&lt;hr size=&quot;1&quot; style=&quot;border-style:solid;&quot;&gt;&lt;p style=&quot;margin:0px;margin-left:4px;&quot;&gt;&lt;br&gt;&lt;/p&gt;&lt;hr size=&quot;1&quot; style=&quot;border-style:solid;&quot;&gt;&lt;p style=&quot;margin:0px;margin-left:4px;&quot;&gt;+ &lt;font style=&quot;font-size: 14px;&quot;&gt;Operation()&lt;/font&gt;&lt;/p&gt;" style="verticalAlign=top;align=left;overflow=fill;html=1;whiteSpace=wrap;" vertex="1" parent="1">
          <mxGeometry x="205" y="390" width="160" height="90" as="geometry" />
        </mxCell>
        <mxCell id="e4dGOHBsxu-X1obNb4UQ-20" style="edgeStyle=orthogonalEdgeStyle;rounded=0;orthogonalLoop=1;jettySize=auto;html=1;entryX=0.006;entryY=0.833;entryDx=0;entryDy=0;entryPerimeter=0;endArrow=block;endFill=0;endSize=12;" edge="1" parent="1" source="e4dGOHBsxu-X1obNb4UQ-19" target="e4dGOHBsxu-X1obNb4UQ-11">
          <mxGeometry relative="1" as="geometry" />
        </mxCell>
        <mxCell id="e4dGOHBsxu-X1obNb4UQ-22" style="edgeStyle=orthogonalEdgeStyle;rounded=0;orthogonalLoop=1;jettySize=auto;html=1;entryX=0.5;entryY=1;entryDx=0;entryDy=0;endSize=12;endArrow=block;endFill=0;" edge="1" parent="1" source="e4dGOHBsxu-X1obNb4UQ-21" target="e4dGOHBsxu-X1obNb4UQ-11">
          <mxGeometry relative="1" as="geometry" />
        </mxCell>
        <mxCell id="e4dGOHBsxu-X1obNb4UQ-21" value="&lt;p style=&quot;margin:0px;margin-top:4px;text-align:center;&quot;&gt;&lt;b&gt;&lt;font style=&quot;font-size: 14px;&quot;&gt;DecoratorB&lt;/font&gt;&lt;/b&gt;&lt;/p&gt;&lt;hr size=&quot;1&quot; style=&quot;border-style:solid;&quot;&gt;&lt;p style=&quot;margin:0px;margin-left:4px;&quot;&gt;+ addedState&lt;/p&gt;&lt;hr size=&quot;1&quot; style=&quot;border-style:solid;&quot;&gt;&lt;p style=&quot;margin: 0px 0px 0px 4px; line-height: 160%;&quot;&gt;+ Operation()&lt;/p&gt;&lt;p style=&quot;margin: 0px 0px 0px 4px; line-height: 160%;&quot;&gt;+ AddedBehavior()&lt;/p&gt;" style="verticalAlign=top;align=left;overflow=fill;html=1;whiteSpace=wrap;" vertex="1" parent="1">
          <mxGeometry x="535" y="440" width="160" height="110" as="geometry" />
        </mxCell>
      </root>
    </mxGraphModel>
  </diagram>
</mxfile>
